# xmcd
#
# Track frame offsets:
#	150
#	19740
#	35132
#	47380
#	63497
#	77485
#	97190
#	114427
#	132302
#	152207
#
# Disc length: 2218 seconds
#
# Revision: 2
# Processed by: cddbd v1.5.2PL0 Copyright (c) Steve Scherf et al.
# Submitted via: EasyCDDAExtractor 15.3.0.1
#
DISCID=7f08a80a
DTITLE=Lucero - Un Nuevo Amor
DYEAR=2002
DGENRE=Latin
TTITLE0=Que Alguien Me Diga
TTITLE1=Volver Jamas
TTITLE2=Por Ti
TTITLE3=Yo No Te Perdi
TTITLE4=Carta A Ufemia
TTITLE5=A Quien Voy A Engañar
TTITLE6=Me Gusta
TTITLE7=Lo He Intentado Todo
TTITLE8=Como Te Voy A Olvidar
TTITLE9=Me Duele La Piel
EXTD=the album is the last one of lucero, she's from MExico, my name is Miguel
EXTD=
EXTT0=
EXTT1=
EXTT2=
EXTT3=
EXTT4=
EXTT5=
EXTT6=
EXTT7=
EXTT8=
EXTT9=
PLAYORDER=
